<?xml version="1.0" standalone="no"?>
<!DOCTYPE svg PUBLIC "-//W3C//DTD SVG 20010904//EN"
 "http://www.w3.org/TR/2001/REC-SVG-20010904/DTD/svg10.dtd">
<svg version="1.0" xmlns="http://www.w3.org/2000/svg"
 width="96.000000pt" height="96.000000pt" viewBox="0 0 96.000000 96.000000"
 preserveAspectRatio="xMidYMid meet">

<g transform="translate(0.000000,96.000000) scale(0.100000,-0.100000)"
fill="#000000" stroke="none">
<path d="M371 849 c-45 -9 -82 -38 -106 -82 -25 -45 -15 -56 25 -27 63 45 192
65 243 39 20 -11 20 -10 -3 16 -44 47 -100 67 -159 54z"/>
<path d="M598 799 l-33 -30 29 4 c37 6 120 -14 174 -41 l42 -22 0 21 c0 12
-17 39 -39 60 -35 35 -44 39 -90 39 -43 0 -56 -5 -83 -31z"/>
<path d="M558 679 c-4 -73 -10 -97 -51 -189 -57 -126 -87 -171 -140 -210 -27
-20 -36 -31 -26 -35 98 -35 102 -36 121 -19 28 26 65 110 88 199 24 93 38 292
23 320 -8 13 -11 -3 -15 -66z"/>
<path d="M541 724 c0 -11 3 -14 6 -6 3 7 2 16 -1 19 -3 4 -6 -2 -5 -13z"/>
</g>
</svg>
